<?xml version="1.0" encoding="UTF-8" standalone="no"?>
<svg
   xmlns:dc="http://purl.org/dc/elements/1.1/"
   xmlns:cc="http://creativecommons.org/ns#"
   xmlns:rdf="http://www.w3.org/1999/02/22-rdf-syntax-ns#"
   xmlns:svg="http://www.w3.org/2000/svg"
   xmlns="http://www.w3.org/2000/svg"
   version="1.1"
   class="illustration styles_illustrationTablet__1DWOa"
   height="142"
   width="142"
   viewBox="0 0 139.90148 139.21569"
   data-name="Layer 1"
   id="Layer_1">
  <metadata
     id="metadata93">
    <rdf:RDF>
      <cc:Work
         rdf:about="">
        <dc:format>image/svg+xml</dc:format>
        <dc:type
           rdf:resource="http://purl.org/dc/dcmitype/StillImage" />
        <dc:title>#127_user avatar_twocolour</dc:title>
      </cc:Work>
    </rdf:RDF>
  </metadata>
  <defs
     id="defs91" />
  <title
     id="title2">#127_user avatar_twocolour</title>
  <path
     style="fill:#68e1fd"
     id="path12"
     d="m 109.30074,60.979483 c 0,0 21.47,14.12 15.55,51.369997 0,0 -6.7,9 -15.62,14.54 z" />
  <path
     style="opacity:0.46000001;fill:#ffffff"
     id="path14"
     d="m 109.30074,60.979483 c 0,0 21.47,14.12 15.55,51.369997 0,0 -6.7,9 -15.62,14.54 z" />
  <path
     style="fill:#f4a28c"
     id="path18"
     d="m 74.190738,24.169483 c 0,0 1.44,6.93 0.81,11.73 a 3.56,3.56 0 0 1 -4,3.06 c -2.41,-0.35 -5.57,-1.53 -6.8,-5.15 l -2.83,-5.89 a 6.37,6.37 0 0 1 2,-7.080003 c 3.6,-3.32 10.15,-0.94 10.82,3.330003 z" />
  <polygon
     transform="translate(-43.699262,-39.92052)"
     style="fill:#f4a28c"
     id="polygon20"
     points="105.58,68.91 104.66,92.09 117.47,91.69 112.99,74.98 " />
  <path
     style="fill:#ffd200"
     id="path22"
     d="m 72.480738,24.669483 a 28.23,28.23 0 0 1 -6.54,0.27 5.89,5.89 0 0 1 0.76,6.43 4.81,4.81 0 0 1 -5.54,2.59 l -1,-9 a 7.21,7.21 0 0 1 2.91,-6.880003 25.69,25.69 0 0 1 2.85,-1.83 c 2.47,-1.35 6.49,-0.07 8.61,-2.1 a 1.71,1.71 0 0 1 2.82,0.79 c 0.73,2.7 0.76,7.080003 -2.78,9.000003 a 6.76,6.76 0 0 1 -2.09,0.73 z" />
  <path
     style="fill:#f4a28c"
     id="path24"
     d="m 67.430738,31.079483 c 0,0 -0.38,-2.7 -2.39,-2.25 -2.01,0.45 -1.49,4.36 1.32,4.4 z" />
  <path
     style="fill:#f4a28c"
     id="path26"
     d="m 74.870738,28.579483 2.28,2.5 a 1.13,1.13 0 0 1 -0.5,1.85 l -2.63,0.82 z" />
  <path
     style="opacity:0.31000001;fill:#ce8172"
     id="path28"
     d="m 70.430738,38.669483 a 8.34,8.34 0 0 1 -4.41,-2 c 0,0 0.68,4.19 5.81,7.8 z" />
  <path
     style="fill:#68e1fd"
     id="path30"
     d="m 23.090738,120.91948 c 0,0 -35.27,-59.169997 37,-69.109997 h 13.64 c 0,0 71.700002,-8.77 35.430002,75.119997 v 0 a 66.37,66.37 0 0 1 -83.440002,-3.61 z" />
  <path
     style="fill:#24285b"
     id="path40"
     d="m 54.400738,52.379483 17.43,63.489997 10,-64.369997 c 0,0 -18.43,-1.42 -27.43,0.88 z" />
  <polygon
     transform="translate(-43.699262,-39.92052)"
     style="fill:#ffffff"
     id="polygon42"
     points="119.73,128.78 113.64,100.9 109.02,101.11 108.44,129.99 115.53,155.79 " />
  <path
     style="fill:#ffffff"
     id="path44"
     d="m 62.970738,54.909483 c 0,0 -1.14,6.54 2.63,6.77 6.9,0.44 6,-1.18 5.15,-7.6 l -4.23,-3 z" />
  <polygon
     transform="translate(-43.699262,-39.92052)"
     style="opacity:0.32000002;fill:#ffffff"
     id="polygon46"
     points="96.19,140.45 115.53,155.79 98.1,92.3 85.96,118.69 102.87,126.95 " />
  <polygon
     transform="translate(-43.699262,-39.92052)"
     style="opacity:0.32000002;fill:#ffffff"
     id="polygon52"
     points="124.33,127.12 132.72,141.28 115.53,155.79 125.55,91.42 138.66,118.38 " />
  <path
     style="opacity:0.07999998"
     id="path54"
     d="m 39.780738,86.149483 c 0,0 5.89,8.48 6.41,26.049997 0.52,17.57 11.26,28.52 40.9,25.4 0,0 -22.73,8.64 -50.3,-6.42 l -9.49,-35.469997 z" />
  <rect
     style="fill:#ffffff"
     id="rect56"
     height="3.5"
     width="13.46"
     y="86.149483"
     x="89.720734" />
  <polygon
     transform="translate(-43.699262,-39.92052)"
     style="fill:#24285b"
     id="polygon58"
     points="98.1,92.3 104.9,86.04 110.22,91.04 115.72,85.16 125.55,91.42 117.72,96.93 110.67,95.09 104.69,97.72 " />
  <path
     style="fill:#68e1fd"
     id="path60"
     d="m 15.850738,79.779483 c -3.08,7.83 -4.71,18.43 -1.36,31.809997 a 83.21,83.21 0 0 0 22.3,19.59 c 0,0 -2.11,-20.69 1.36,-32.999997 1.78,-6.28 2.13,-11.75 1,-16.77 -2.51,-11.71 -18.91,-12.82 -23.3,-1.63 z" />
  <path
     style="opacity:0.32000002;fill:#ffffff"
     id="path62"
     d="m 15.850738,79.779483 c -3.08,7.83 -4.71,18.43 -1.36,31.809997 a 83.21,83.21 0 0 0 22.3,19.59 c 0,0 -2.11,-20.69 1.36,-32.999997 1.78,-6.28 2.13,-11.75 1,-16.77 -2.51,-11.71 -18.91,-12.82 -23.3,-1.63 z" />
  <circle
     style="fill:#24285b"
     id="circle64"
     r="2.4200001"
     cy="125.88948"
     cx="71.350739" />
</svg>
