



<svg id="Layer_1" data-name="Layer 1" xmlns="http://www.w3.org/2000/svg" viewBox="0 0 400 300" width="406" height="306" class="illustration styles_illustrationTablet__1DWOa"><title>#24 questions</title><path d="M166.85,106.25s-38.25,4.46-51.9,14.91-11,26.46,33.47,18.05S166.85,106.25,166.85,106.25Z" fill="#68e1fd" class="fill-primary"></path><path d="M166.85,106.25s-38.25,4.46-51.9,14.91-11,26.46,33.47,18.05S166.85,106.25,166.85,106.25Z" opacity="0.08"></path><path d="M151.71,80a11.5,11.5,0,0,0,3.83-1.17c2-1,6.3-2,6.21,2.2-.06,2.67-4.21-.49-4.49,3.1s.23,8.13-7.18,7C143.32,90.05,145.2,80.83,151.71,80Z" fill="#f4a28c"></path><ellipse cx="270.81" cy="58.65" rx="51.24" ry="43.77" fill="#24285b" class="fill-paper"></ellipse><ellipse cx="195.33" cy="263.48" rx="108.39" ry="15.39" fill="#e6e6e6" class="fill-paper" opacity="0.45"></ellipse><path d="M240.27,246.12S230.13,243.4,227.89,234c0,0,15.68-3.24,16.19,13Z" fill="#68e1fd" class="fill-primary" opacity="0.58"></path><path d="M241.51,245.11s-7.12-11.15-.94-21.64c0,0,12,7.53,6.72,21.64Z" fill="#68e1fd" class="fill-primary" opacity="0.73"></path><path d="M243.33,245.11s3.69-11.83,15-14.11c0,0,2.15,7.66-7.26,14.11Z" fill="#68e1fd" class="fill-primary"></path><polygon points="235.99 244.88 238.1 258.91 251.03 258.91 252.87 244.88 235.99 244.88" fill="#24285b"></polygon><path d="M172.44,255.25s-1.43,4.22-5.21,4.6-4.72,4.11-1.29,5,12.13-3.63,12.13-3.63l-.37-6Z" fill="#68e1fd" class="fill-primary"></path><path d="M212.2,250.54s1.11,4.32-1.85,6.71-1.69,6,1.67,4.9,8.17-9.68,8.17-9.68l-3.28-4.38Z" fill="#68e1fd" class="fill-primary"></path><path d="M179.68,77.3s3.64,6.39,4.55,11.34a3.7,3.7,0,0,1-3,4.3c-2.49.42-6,.27-8.36-2.92L168.2,85.1a6.62,6.62,0,0,1-.3-7.63C170.43,73,177.66,73.29,179.68,77.3Z" fill="#f4a28c"></path><polygon points="169.91 86.18 170.01 110.29 183.29 109.28 178.02 92.58 169.91 86.18" fill="#f4a28c"></polygon><path d="M181.77,81.45l3,1.72a1.17,1.17,0,0,1,.1,2l-2.33,1.66Z" fill="#f4a28c"></path><path d="M178.17,93.05a9,9,0,0,1-4.49-1.74s-.46,5.26,6,6.52Z" fill="#ce8172" opacity="0.31"></path><path d="M272.68,31.33c5.34.31,9.53,2,12.57,5a13.59,13.59,0,0,1,4.09,10.81,14.92,14.92,0,0,1-2,7.32c-1.26,1.92-1.9,3.1-3.84,4.42a26.56,26.56,0,0,1-4.66,2.73c-1.1.57-1.84.89-2.13,1.09-3,1.61-4.69,3.15-4.85,5.93-.1,1.78-.7,2.25-2.41,2.15l-2.85-.17c-1.71-.1-2.25-.63-2.15-2.41.36-6.06,3-8.83,7.53-11.5-.07,0,2.89-1.61,3-1.68a17.91,17.91,0,0,0,2.61-1.85,11.58,11.58,0,0,0,2-2.59,12,12,0,0,0,.86-3.6c.25-4.34-2.79-7.45-8.48-7.78-5.49-.32-8.53,1.71-10.79,6.08-.89,1.74-1.47,2-3.15,1.32l-3.35-1.41c-1.61-.59-2-1.69-1.32-3.15Q258.7,30.52,272.68,31.33Zm-4.53,43.25c3.42.2,4.49,1.41,4.29,4.82l0,.65c-.2,3.48-1.4,4.49-4.82,4.29l-.57,0c-3.42-.2-4.49-1.33-4.29-4.82l0-.64c.2-3.42,1.4-4.49,4.82-4.29Z" fill="#ffd200" class="fill-warning"></path><path d="M178.06,105.33h13.31S234,109,234.68,130.08s-26.89,63.19-26.89,63.19H161.85S109,105.33,178.06,105.33Z" fill="#68e1fd" class="fill-primary"></path><path d="M204.89,124.9s-9.62,13.72-5.6,24.4,5.81,27.79-25.17,11.22l-4.5-14.36L157.52,142l-4.87,19.81,8.34,2.83a7.7,7.7,0,0,1,5,9.55c-1.11,3.4-3.85,6.76-10.27,7.41l6.17,11.63h45.94l6.09-9.91,16.74-36.77Z" opacity="0.08"></path><path d="M169.93,91s-3.08-5.64-6.76-8.13-.67-10.5,5.8-11.93c4.84-1.08,7.61-2.67,7.65-5.4a1.61,1.61,0,0,1,2.57-1.19c2.22,1.67,4.49,4.4,3.39,8.18a8.31,8.31,0,0,1-6,5.59l-4.36,1.16S178.06,87.15,169.93,91Z" fill="#24285b"></path><path d="M175.2,86.28s-1.23-2.55-3.07-1.46-.09,4.78,2.7,3.92Z" fill="#f4a28c"></path><polygon points="230.06 70.85 204.77 90.49 236.68 83.7 230.06 70.85" fill="#24285b" class="fill-paper"></polygon><path d="M205.11,131.27c-3.52-12.86,11.91-22.43,22-13.65,4.81,4.2,8.91,9.6,10.15,16.31,3.57,19.28,15,36.06-2.5,47.48s-58.92-13.92-58.92-13.92l5.7-10.35s20.73,8.21,33.59,7.49C224,164.14,210.08,149.43,205.11,131.27Z" fill="#68e1fd" class="fill-primary"></path><rect x="163.54" y="141.07" width="12.85" height="20.73" transform="translate(39.82 -35.33) rotate(13.43)" fill="#ffd200" class="fill-warning"></rect><path d="M205.11,131.27c-3.52-12.86,11.91-22.43,22-13.65,4.81,4.2,8.91,9.6,10.15,16.31,3.57,19.28,15,36.06-2.5,47.48s-58.92-13.92-58.92-13.92l5.7-10.35s20.73,8.21,33.59,7.49C224,164.14,210.08,149.43,205.11,131.27Z" fill="#fff" opacity="0.3"></path><path d="M180.78,158.44a12.71,12.71,0,0,0-2.72-5.33c-2.24-2.68-3-3.87-6.09-3.81s-3.4,11.41,5.13,15.82Z" fill="#f4a28c"></path><path d="M207.79,193.27s-9.2,38.2,9.22,54.26l-6.49,6.07s-23.88-13.86-27.21-51.94Z" fill="#24285b"></path><path d="M146.24,84.32l3.84,6.79L122,135.36c-4.34,6.83-15.15,4-15.25-4.09,0-3.73,1.13-8.22,4.46-13.52C123.27,98.49,146.24,84.32,146.24,84.32Z" fill="#68e1fd" class="fill-primary"></path><rect x="147.45" y="67.73" width="2" height="10.51" transform="translate(56.43 210.45) rotate(-82.38)" fill="#c9c9c9"></rect><rect x="153.04" y="58.08" width="2" height="10.51" transform="translate(-4.91 113.09) rotate(-39.73)" fill="#c9c9c9"></rect><rect x="159.87" y="59.74" width="10.51" height="2" transform="translate(89.39 219.54) rotate(-84.7)" fill="#c9c9c9"></rect><path d="M161.85,193.27s-9.44,35.66,9.17,61.95l7.52-.36s-10.9-35.57,5.29-48.58l24-13Z" fill="#24285b"></path></svg>