<?xml version="1.0" encoding="UTF-8"?>
<svg
   xmlns="http://www.w3.org/2000/svg" xmlns:xlink="http://www.w3.org/1999/xlink"
   class="illustration styles_illustrationTablet__1DWOa"
   height="140.02901"
   width="140.02901"
   viewBox="0 0 137.95961 137.28334"
   data-name="Layer 1"
   id="Layer_1">
  <g
     transform="matrix(0.99999707,0,0,0.99133018,-50.139849,124.79572)">
    <path
       d="m 128.33,-88.908223 c 0,0 2,9.64 1.13,16.31 a 4.94,4.94 0 0 1 -5.58,4.25 c -3.35,-0.48 -7.75,-2.12 -9.45,-7.15 l -3.94,-8.2 c 0,0 -2.28,-5.22 2.76,-9.84 5.04,-4.62 14.15,-1.31 15.08,4.63 z"
       fill="#f4a28c" />
    <polygon
       points="109.93,113.56 127.75,112.99 121.52,89.75 111.21,81.31 "
       fill="#f4a28c"
       transform="translate(0,-163.51822)" />
    <path
       d="m 126,-88.218223 a 39.79,39.79 0 0 1 -9.1,0.38 8.19,8.19 0 0 1 1.06,8.94 6.67,6.67 0 0 1 -7.7,3.6 l -1.33,-12.58 a 10,10 0 0 1 4,-9.48 37,37 0 0 1 3.95,-2.54 c 3.45,-1.879997 9,-0.1 12,-2.919997 a 2.37,2.37 0 0 1 3.92,1.1 c 1,3.749997 1.05,9.849997 -3.87,12.549997 a 9.3,9.3 0 0 1 -2.93,0.95 z"
       fill="#24285b" />
    <path
       d="m 118.93,-79.308223 c 0,0 -0.52,-3.76 -3.32,-3.13 -2.8,0.63 -2.07,6.06 1.83,6.11 z"
       fill="#f4a28c" />
    <path
       d="m 129.28,-82.768223 3.17,3.44 a 1.58,1.58 0 0 1 -0.69,2.57 l -3.66,1.15 z"
       fill="#f4a28c" />
    <path
       d="m 123.1,-68.738223 a 11.66,11.66 0 0 1 -6.1,-2.73 c 0,0 1,5.83 8.07,10.85 z"
       fill="#ce8172"
       opacity="0.31" />
    <path
       d="m 72.65,-6.2682233 c 0,0 -1.06,-43.2999997 45.64,-45.5399997 46.7,-2.24 45.47,47.4499997 45.47,47.4499997 0,0 -44.06,40.1600003 -91.11,-1.91 z"
       fill="currentColor" class="fill-primary" />
  </g>
</svg>
