<svg id="Layer_1" data-name="Layer 1" xmlns="http://www.w3.org/2000/svg" viewBox="0 0 400 300" width="406" height="306" class="illustration styles_illustrationTablet__1DWOa"><path d="M192.65,152.79s-14.78-4.54-17.82,5.21,11.78,8.44,11.78,8.44Z" fill="#24285b"></path><path d="M161.28,95.66l-12.65,39.13a4.47,4.47,0,0,1-6.56,2.46L121.14,124.7l-3.8,6.83s24.76,24,34.67,21.26,22.82-27.08,22.82-27.08Z" fill="#68e1fd" class="fill-primary"></path><path d="M161.28,95.66l-12.65,39.13a4.47,4.47,0,0,1-6.56,2.46L121.14,124.7l-3.8,6.83s24.76,24,34.67,21.26,22.82-27.08,22.82-27.08Z" opacity="0.08"></path><polygon points="160.67 63.83 172.56 79.52 165.43 90.95 158.46 71.65 160.67 63.83" fill="#f4a28c"></polygon><path d="M159.42,74.72a7.12,7.12,0,0,0,2.11-3.51s1.56,3.25-.25,8.25Z" fill="#ce8172" opacity="0.31"></path><path d="M152.21,66.54s1.58,5.8,3.9,9.18a3,3,0,0,0,4.21.76,6.64,6.64,0,0,0,3.15-6.5l-.13-5.54a5.4,5.4,0,0,0-4.23-4.58C155.1,58.74,151.06,63.06,152.21,66.54Z" fill="#f4a28c"></path><path d="M153.39,70.14l-.77,2.75a1,1,0,0,0,1.09,1.21l2.3-.39Z" fill="#f4a28c"></path><path d="M166,70.07l-1.72-8s3.71-2.75,1.15-4.79-3.3.55-4.91-2.46-4.39-2.38-5.28.22-1.28-.2-3.63.58-2.44,2-1.65,3.74-3.26,1.52-3,4,1.18,4.62,6.79,2.2S157.69,69.65,166,70.07Z" fill="#ffd200" class="fill-warning"></path><path d="M160,69.16s-.76-2.19.94-2.62,2.8,2.71.7,3.82Z" fill="#f4a28c"></path><path d="M226.31,213.24l9.31,7.42A48.68,48.68,0,0,0,270.68,231l10.47-1a2,2,0,0,0,1.3-3.35l-17-18.76Z" fill="#a8a8a8"></path><path d="M226.31,161.15l9.31-7.42a48.63,48.63,0,0,1,35.06-10.37l10.47,1a2,2,0,0,1,1.3,3.35l-17,18.76Z" fill="#a8a8a8"></path><path d="M87.75,187.17S131.68,242,265.42,207.89V166.44C131.68,132.35,87.75,187.17,87.75,187.17Z" fill="#e6e6e6"></path><path d="M176.11,155.43s-12.92,9.11-10.6,22.28,19.37,31.07,19.37,31.07-3.88,11.31,6.92,5.4l1.95-5.57-8.53-21.44-2.37-18.75,6.88-13.15Z" opacity="0.08"></path><path d="M165.43,91l7.13-11.44s24.83-2.27,34,17.61,13.33,45.17,13.33,45.17l-27.23,10.5S142.64,133.62,165.43,91Z" fill="#68e1fd" class="fill-primary"></path><path d="M219.88,142.29s10.25,21.81-3.7,24.21a112.32,112.32,0,0,0-21,6.11,7.59,7.59,0,0,0-4.6,8.83l5,20.75-5.81,4.63L178,183.53a18.35,18.35,0,0,1,4.55-22.19l10.06-8.55Z" fill="#24285b"></path><path d="M184.23,109s-3.4,15.16,4.36,23.94,15,15.58,15,15.58l-11,4.24S179.1,147.21,171,138.4,176.15,106.36,184.23,109Z" opacity="0.08"></path><path d="M187.07,94.49c-.69-12.42-17.42-15.86-23.3-4.9A29,29,0,0,0,160.4,100c-1.59,13.77-16.49,70.85-16.49,70.85l8.82,2.58S176.7,130.06,185,107A32,32,0,0,0,187.07,94.49Z" fill="#68e1fd" class="fill-primary"></path><rect x="131.84" y="177" width="27.64" height="6.52" rx="3.26" fill="#878787" opacity="0.19"></rect><path d="M187.07,94.49c-.69-12.42-17.42-15.86-23.3-4.9A29,29,0,0,0,160.4,100c-1.59,13.77-16.49,70.85-16.49,70.85l8.82,2.58S176.7,130.06,185,107A32,32,0,0,0,187.07,94.49Z" fill="#fff" opacity="0.36"></path><path d="M145.36,171.29s-8.12,6.61-2.5,9.09,9.87-6.93,9.87-6.93Z" fill="#f4a28c"></path><rect x="265.42" y="166.44" width="5.79" height="41.44" fill="#a8a8a8"></rect><path d="M271.21,172.55s50.68-.94,63.57,11-63.57,16.12-63.57,16.12Z" fill="#ffd200" class="fill-warning"></path><path d="M271.21,180.26s39-1.31,41.23,3.26-41.23,9.23-41.23,9.23Z" fill="#fff" opacity="0.33"></path><path d="M118.55,129.36s-9.48-3.14-5.43-9.39,8,4.73,8,4.73Z" fill="#f4a28c"></path><rect x="111.52" y="106.97" width="9.96" height="15.7" transform="translate(-30.65 43.39) rotate(-18.69)" fill="#ffd200" class="fill-warning"></rect><path d="M191.07,205.71s1.38,5.94-1.39,7.63c0,0,.94,4.22,5,1.85s3-8.37,3-8.37L194.47,203Z" fill="#68e1fd" class="fill-primary"></path><path d="M123.44,165.08v44.17s-22-6-35.69-22.08C87.75,187.17,99.48,172.88,123.44,165.08Z" fill="#a8a8a8"></path></svg>