<svg id="Layer_1" data-name="Layer 1" xmlns="http://www.w3.org/2000/svg" viewBox="0 0 400 300" width="406" height="306" class="illustration styles_illustrationTablet__1DWOa"><path d="M136.76,64.22c-47.5,11.3-85,47-96,92.87-8.19,34.15-1,69.36,54.09,82.16C214,266.94,342.62,257.8,358,202.44S344.85,52.08,276.73,46.21C237.94,42.86,179.72,54,136.76,64.22Z" fill="#e6e6e6" opacity="0.3" class="fill-paper"></path><path d="M252.17,184.74c-2.59,0-6.77-3.2-8.4-5-.72-.81-4.33-7.61-2.22-8.31a5.73,5.73,0,0,1-5.29-1l-.17-.14a4.88,4.88,0,0,1-1.41-5.06c-1.36,2.13-4.48,2.88-7,2.17a11.22,11.22,0,0,1-6-4.71,22.51,22.51,0,0,1-18.83,8.44c-3.88-.22-8.27-2-9-5.58.29,1.36-5.2,5.13-6.44,5.45-2.72.7-7.09-.45-9.88-.87a14.76,14.76,0,0,1-2.82,8l-.07.1h0a10.9,10.9,0,0,1-.76,1,14.21,14.21,0,0,1-2.63,2.44c-5.09,3.68-19.64,5.48-21.09-3-.88-5.16,4.7-10.75,9.54-12.14a8.35,8.35,0,0,1,3.44-10.42,9.69,9.69,0,0,1,11.51,1.63c-1.64-1.8,14-9.32,17.43-10.36a3.09,3.09,0,0,1,.44-.11,23.1,23.1,0,0,1,10.18.7,17.58,17.58,0,0,1,8.9,5.86c2.45-4.94,8.69-7.33,14.22-7.34a15.48,15.48,0,0,1,7.73,1.73,30.57,30.57,0,0,1,4.59,4.56c.44.61.62,1.05.33,1.18a7.54,7.54,0,0,1,7.6,1.19,6.42,6.42,0,0,1,1.82,7A14,14,0,0,1,258,172.84C258.74,176.56,257.72,184.81,252.17,184.74Z" fill="#68e1fd" class="fill-primary"></path><path d="M238.58,167.05a7.74,7.74,0,0,1-2.22,3.32l-.1.08-.17-.14a4.88,4.88,0,0,1-1.41-5.06c-1.36,2.13-4.48,2.88-7,2.17a11.22,11.22,0,0,1-6-4.71,22.51,22.51,0,0,1-18.83,8.44c-3.88-.22-8.27-2-9-5.58.29,1.36-5.2,5.13-6.44,5.45-2.72.7-7.09-.45-9.88-.87a14.76,14.76,0,0,1-2.82,8,8.43,8.43,0,0,1,0-10.08,20.68,20.68,0,0,0,2.41-2.91,12.1,12.1,0,0,0,.84-2.55c2.6-9.78,14.16-16.61,24.71-14.7a17.58,17.58,0,0,1,8.9,5.86c2.45-4.94,8.69-7.33,14.22-7.34a15.48,15.48,0,0,1,7.73,1.73,30.57,30.57,0,0,1,4.59,4.56,29.71,29.71,0,0,1-3.75,5.88C236.79,161,239.44,163.9,238.58,167.05Z" opacity="0.08"></path><path d="M193.59,235.44l-42-2.23s36.2,7.64,25.49,12.89-53.78,15.49-53.78,15.49,65.19-9.14,57,1.83-22.26,20.27-22.26,20.27,36.76-12.5,52.28-14.54c14.27-1.88,42.8,13.32,42.8,13.32s-28-17.76-15.26-22.06,49.32-1.91,49.32-1.91-60.56-3.07-48.33-13.57,27.6-17.76,27.6-17.76-48.63,18.4-42.66,8.9a104.46,104.46,0,0,1,12.57-15.59S217,238.49,193.59,235.44Z" fill="#ffd200" class="fill-warning"></path><path d="M146,85.75a13.32,13.32,0,0,1,1.44,1.66A120.41,120.41,0,0,1,162.22,109c9.4,17.35,15.75,36.1,20.57,55a408.3,408.3,0,0,1,8.48,43.33c2,13.93,4.35,28.67,4.43,42.67a3.21,3.21,0,0,0,.18,1.27,3.34,3.34,0,0,0,1.72,1.49,19.62,19.62,0,0,0,16.74.16c2.36-9.42,1.58-19.49,2.76-29.12q1.38-11.37,3.14-22.69c3.75-24.12,8.63-48.21,16.14-71.57,6.29-19.54,14.42-42,31-56.2Z" fill="#c7c9c9"></path><path d="M220.15,149.86s-11.65,61.66-10.66,89.73c0,0-3.14-24-.27-45.06S220.15,149.86,220.15,149.86Z" opacity="0.08"></path><path d="M180.35,122.05s22.25,65.86,19.33,97.25C198.33,216.74,212.24,182.26,180.35,122.05Z" opacity="0.08"></path><path d="M300.05,81.9a16.2,16.2,0,0,1-.79,2.28c-6,14.22-31.09,22-43.23,12-5.67,16.76-23.19,23.58-39.42,24.06-5.19.14-12.8-2.25-17.65-4.17a38.54,38.54,0,0,1-15.57-11.16,82.21,82.21,0,0,1-58.54-1.25c-6.91-2.84-13.66-6.92-18.48-12.5a29.19,29.19,0,0,1-5-8.06,27,27,0,0,1,23.19-37.17A40,40,0,0,1,190,29.12a36.84,36.84,0,0,1,32.12-12.55c5.19.64,10.78,2.25,15.09,5.32,1,.72,8.23,7.88,6.05,9A34.9,34.9,0,0,1,282.41,36a21.9,21.9,0,0,1,6.7,10.64c1,4.14.12,8.85-2.86,11.88C296.24,60.37,302.63,72.08,300.05,81.9Z" fill="#68e1fd" class="fill-primary"></path><path d="M255.93,189.62c-.22.6-.44,1.14-.65,1.59-2.2,4.77-7.44,8.75-12.94,8a13.09,13.09,0,0,1-9.56,10.52c-5.05,1.2-11.05-1.53-12.48-6.22a13.35,13.35,0,0,1-12.16,5.16,12.84,12.84,0,0,1-10.38-7.86,16.84,16.84,0,0,1-14.68,7.27c-7.37-.36-9.58-5.53-15.08-8.5-5.16-2.78-10.7-2.64-14.31-7.78a11.7,11.7,0,0,1-1.12-1.92c-3.88-8.2,2.13-18.49,13.19-16.21,4.91,1,8.81,5.32,9.08,10a13.12,13.12,0,0,1,7.3-4.65c3.38-.66,5.71,2,8.49,1.62,3-.39,5.54-2.75,9-2.9a17.69,17.69,0,0,1,12.62,4.54c.92-.67,2-1.54,3.12-2.36a17.55,17.55,0,0,1,4.68-2.67c1.13-.36,10.54,1,9.45,2.85,3.69-6.1,12.12-8.8,19.24-7.49,2.81.52,7.16,1.91,8.41,4.5C258.57,180,257.28,186,255.93,189.62Z" fill="#68e1fd" class="fill-primary"></path><path d="M216.36,127.89A153.81,153.81,0,0,0,211,154.38S208.49,142.67,216.36,127.89Z" opacity="0.08"></path><path d="M299.26,84.18c-6,14.22-31.09,22-43.23,12-5.67,16.76-23.19,23.58-39.42,24.06-5.19.14-12.8-2.25-17.65-4.17a38.54,38.54,0,0,1-15.57-11.16,82.21,82.21,0,0,1-58.54-1.25c-6.91-2.84-13.66-6.92-18.48-12.5,7.52,3.93,16.4,5.47,25,5.29,12.57-.26,25.46-4.14,34.52-12.86a14.8,14.8,0,0,0,24.86,5.61,55.4,55.4,0,0,0,45.35,8.55c8-2,16.16-6.7,18.54-14.57A82.52,82.52,0,0,0,299,84.26Z" opacity="0.08"></path><path d="M174.6,178.29a10.9,10.9,0,0,1-.76,1l-.86-.34C173.52,178.69,174.05,178.48,174.6,178.29Z" opacity="0.08"></path><path d="M255.93,189.62c-.22.6-.44,1.14-.65,1.59-2.2,4.77-7.44,8.75-12.94,8a13.09,13.09,0,0,1-9.56,10.52c-5.05,1.2-11.05-1.53-12.48-6.22a13.35,13.35,0,0,1-12.16,5.16,12.84,12.84,0,0,1-10.38-7.86,16.84,16.84,0,0,1-14.68,7.27c-7.37-.36-9.58-5.53-15.08-8.5-5.16-2.78-10.7-2.64-14.31-7.78a11.7,11.7,0,0,1-1.12-1.92,24.37,24.37,0,0,0,10.76-.63c2.71,4.2,5.95,7.64,11.12,9.2a19.73,19.73,0,0,0,14.79-1.5,6.9,6.9,0,0,1,2.89-1.15,6.33,6.33,0,0,1,1.92.32c4.19,1.23,9,2.63,12.71.42,4.62,5.14,14.09,5.47,19.11.68a10.1,10.1,0,0,0,8.9,2.07,9.33,9.33,0,0,0,6.57-6A15.16,15.16,0,0,0,255.93,189.62Z" opacity="0.08"></path><path d="M186,29.38c3.82-.41,7.9-.08,11.11,2A19.74,19.74,0,0,1,202.73,38a24.61,24.61,0,0,1,3.53,8.35c-1-2.59-3.1-4.58-5.12-6.49-2.44-2.29-4.93-4.63-8-6-4.69-2.17-10.28-1.87-15.08.05-6.74,2.7-10.44,7.79-13.77,13.91C165.87,37.28,176.07,30.44,186,29.38Z" opacity="0.08"></path><path d="M241.59,192.67a8.84,8.84,0,0,0,3.52-8.43c-1.58,2.65-3.25,5.4-5.94,7.09a15.42,15.42,0,0,1-5.69,1.93c-1.27.2-2.85,0-4,.43,1.14.75,3.25.74,4.61.83A11.16,11.16,0,0,0,241.59,192.67Z" opacity="0.08"></path><path d="M256.22,83a19.54,19.54,0,0,1-19.44-4.43c-2.25,3.39-6.44,5.63-10.45,4.9s-7.3-4.84-6.53-8.84c1.14,3.58,5.78,5,9.35,3.88s6.24-4.1,8.52-7.08A14.57,14.57,0,0,0,253.19,80c8.35-1.48,13.07-9.67,14.9-17.25C270.18,71.6,265,80,256.22,83Z" opacity="0.08"></path><path d="M123.38,201.07a2,2,0,0,0-1.9.27,1.81,1.81,0,0,0-.35,1.4,7.79,7.79,0,0,0,3.47,5.63c2.19,1.53,9.76,4.57,9.12-.46C133.28,204.38,126.23,201.69,123.38,201.07Z" opacity="0.08"></path><path d="M120.62,163.64a2.5,2.5,0,0,0,2.84-.63,3,3,0,0,0,.53-1.29c.53-2.73-.83-5.29-3.84-4.25S117.84,162.56,120.62,163.64Z" opacity="0.08"></path><path d="M290.75,223.78c-.17-2.15-4.65-1.07-5.62,1.44-1.22,3.15,1,4,3.47,2.12a6,6,0,0,0,1.74-2A3.17,3.17,0,0,0,290.75,223.78Z" opacity="0.08"></path><path d="M305.54,167.88c.52-1,.58-2.35-.6-3-1.88-1-4.43.3-5.72,1.74-1,1.15-1.55,3.13-.39,4.17s2.74.48,4-.24A6.64,6.64,0,0,0,305.54,167.88Z" opacity="0.08"></path><path d="M112.89,129.18a2,2,0,0,0,0,.77c.38,1.61,3.58,3.73,4.25,1.26a3.47,3.47,0,0,0,.07-1.57,2.38,2.38,0,0,0-2-1.94A2.08,2.08,0,0,0,112.89,129.18Z" opacity="0.08"></path><path d="M84.74,164.78a2.18,2.18,0,0,0,.06.76c.38,1.61,3.58,3.73,4.24,1.27a3.22,3.22,0,0,0,.07-1.57,2.37,2.37,0,0,0-2-1.94A2.08,2.08,0,0,0,84.74,164.78Z" opacity="0.08"></path><path d="M333.63,138a2.21,2.21,0,0,1-.06.77c-.38,1.61-3.58,3.73-4.24,1.27a3.26,3.26,0,0,1-.07-1.58,2.38,2.38,0,0,1,2-1.94A2.09,2.09,0,0,1,333.63,138Z" opacity="0.08"></path><path d="M276.47,136.26c-2.05,1.35-4.39,3.39-3.76,5.77a1.38,1.38,0,0,0,.57.87,1.78,1.78,0,0,0,1.12.1,21.87,21.87,0,0,0,6.81-1.61,7.45,7.45,0,0,0,4.35-5.17,1.41,1.41,0,0,0-.18-1.16,1.65,1.65,0,0,0-1.57-.27L277.09,136c-.92.16-2,.51-2.2,1.44" opacity="0.08"></path><path d="M315.87,193.3c-1.41,4.74,7,6.61,7.73,1.84C324.23,191.12,317,189.6,315.87,193.3Z" opacity="0.08"></path></svg>