<?xml version="1.0" encoding="UTF-8"?>
<svg
   xmlns="http://www.w3.org/2000/svg" xmlns:xlink="http://www.w3.org/1999/xlink"
   class="illustration styles_illustrationTablet__1DWOa"
   height="140.02901"
   width="140.02901"
   viewBox="0 0 137.95961 137.28334"
   data-name="Layer 1"
   id="Layer_1">
  <g
     transform="translate(-213.08019,125.38182)">
    <path
       d="m 291.26,-89.008223 c 0,0 2,9.64 1.13,16.32 a 4.94,4.94 0 0 1 -5.57,4.25 c -3.36,-0.49 -7.75,-2.12 -9.45,-7.16 l -3.94,-8.19 c 0,0 -2.29,-5.23 2.76,-9.84 5.05,-4.61 14.15,-1.32 15.07,4.62 z"
       fill="#f4a28c" />
    <polygon
       points="290.68,112.89 284.46,89.66 274.14,81.21 272.86,113.46 "
       fill="#f4a28c"
       transform="translate(0,-163.51822)" />
    <path
       d="m 281.86,-79.408223 c 0,0 -0.52,-3.75 -3.31,-3.13 -2.79,0.62 -2.08,6.06 1.83,6.11 z"
       fill="#f4a28c" />
    <path
       d="m 292.21,-82.868223 3.17,3.44 a 1.58,1.58 0 0 1 -0.69,2.58 l -3.69,1.14 z"
       fill="#f4a28c" />
    <path
       d="m 286,-68.838223 a 11.63,11.63 0 0 1 -6.09,-2.68 c 0,0 0.95,5.83 8.07,10.86 z"
       fill="#ce8172"
       opacity="0.31" />
    <path
       d="m 235.58,-6.3682233 c 0,0 -1.05,-43.2999997 45.65,-45.5399997 46.7,-2.24 45.47,47.4499997 45.47,47.4499997 0,0 -44.07,40.1600003 -91.12,-1.91 z"
       fill="currentColor" class="fill-primary" />
    <path
       d="m 283.94,-85.748223 14.51,-1.28 c 0,0 -1.79,-10.47 -12,-12.26 -10.21,-1.789997 -16.09,3.83 -16.85,14.56 -0.76,10.73 4,15.29 4,15.29 0,0 13.2,0.28 10.34,-16.31 z"
       fill="#24285b" />
    <path
       d="m 275.58,-97.518223 c 0,0 -12.37,2.46 -12.37,21.13 0,18.67 -14.64,27.7 -2.55,38.93 12.09,11.23 31.49,3.92 23.32,-11.23 -8.17,-15.15 4.7,-20.6 0,-37 -4.7,-16.399997 -8.4,-11.83 -8.4,-11.83 z"
       fill="#24285b" />
  </g>
</svg>
